<?xml version="1.0" encoding="iso-8859-1"?>
<!-- Generator: Adobe Illustrator 19.0.0, SVG Export Plug-In . SVG Version: 6.00 Build 0)  -->
<svg version="1.1" id="Layer_1" xmlns="http://www.w3.org/2000/svg" xmlns:xlink="http://www.w3.org/1999/xlink" x="0px" y="0px"
	 viewBox="0 0 512 512" style="enable-background:new 0 0 512 512;" xml:space="preserve">
<circle style="fill:#31BAFD;" cx="256" cy="256" r="256"/>
<path style="fill:#2B9ED8;" d="M497.247,341.802L320.229,164.785l-76.962,97.213l-125.273,71.528L293.698,509.23
	C388.294,495.268,466.03,429.568,497.247,341.802z"/>
<circle style="fill:#F9B54C;" cx="191.991" cy="206.214" r="78.214"/>
<path style="fill:#FFFFFF;" d="M332.757,358.093c36.155,0,65.465-29.31,65.465-65.465c0-30.522-20.889-56.165-49.15-63.414
	c0.017-0.684,0.052-1.364,0.052-2.051c0-45.194-36.636-81.83-81.83-81.83s-81.83,36.636-81.83,81.83
	c0,0.696,0.036,1.384,0.052,2.077c-5.248-1.355-10.749-2.077-16.418-2.077c-36.155,0-65.465,29.31-65.465,65.465
	s29.31,65.465,65.465,65.465L332.757,358.093L332.757,358.093z"/>
<path style="fill:#E6F3FF;" d="M349.072,229.214c0.017-0.684,0.052-1.364,0.052-2.05c0-45.127-36.53-81.717-81.63-81.827v212.756
	h65.264c36.155,0,65.465-29.31,65.465-65.465C398.222,262.106,377.334,236.463,349.072,229.214z"/>
<g>
</g>
<g>
</g>
<g>
</g>
<g>
</g>
<g>
</g>
<g>
</g>
<g>
</g>
<g>
</g>
<g>
</g>
<g>
</g>
<g>
</g>
<g>
</g>
<g>
</g>
<g>
</g>
<g>
</g>
</svg>
